<?xml version="1.0" encoding="utf-8"?>
<!-- Generator: Adobe Illustrator 16.0.3, SVG Export Plug-In . SVG Version: 6.00 Build 0)  -->
<!DOCTYPE svg PUBLIC "-//W3C//DTD SVG 1.1//EN" "http://www.w3.org/Graphics/SVG/1.1/DTD/svg11.dtd">
<svg version="1.1" id="Ebene_1" xmlns="http://www.w3.org/2000/svg" xmlns:xlink="http://www.w3.org/1999/xlink" x="0px" y="0px"
	 width="841.89px" height="595.28px" viewBox="0 0 841.89 595.28" enable-background="new 0 0 841.89 595.28" xml:space="preserve">
<path fill-rule="evenodd" clip-rule="evenodd" fill="#30348B" d="M246.738,208.543c1.3,0.133,2.604,0.234,3.897,0.41
	c0.769,0.105,1.15-0.496,1.703-0.781c0.471-0.244,0.994-0.859,1.449-0.367c0.439,0.475-0.342,0.799-0.578,1.18
	c-0.286,0.463-0.67,0.869-1.042,1.273c-0.729,0.789-0.757,1.398,0.885,1.793c-1.511,0.221-1.967,0.748-1.411,1.824
	c0.354,0.684,0.615,1.395-0.324,1.902c-0.14,0.074-0.3,0.434-0.249,0.496c1.279,1.566,0.262,3.539,1.066,5.336
	c1.022,2.281,2.721,2.906,4.726,3.605c3.735,1.301,6.518,3.846,8.667,7.119c2.499,3.807,4.077,7.967,4.588,12.488
	c0.176,1.561,1.761,2.258,1.992,3.746c0.048,0.309,0.406,0.033,0.621-0.037c1.554-0.512,1.884-1.934,2.392-3.219
	c0.114-0.291,0.036-0.49-0.315-0.455c-0.271,0.027-0.505,0.035-0.486-0.33c0.058-1.094-0.385-2.461-0.187-3.174
	c0.445-1.596-0.431-2.438-0.986-3.596c0.909-0.248,1.311,0.303,1.614,0.953c0.33,0.709,0.245,1.807,1.65,0.801
	c0.349-0.25,1.135-0.385,1.566-0.9c0.254-0.014,0.43,0.039,0.301,0.352c-0.229,0.441-0.529,0.859-0.675,1.326
	c-0.318,1.016,0.748,1.674,2.112,1.318c0.196,0.314-0.093,0.475-0.257,0.57c-1.762,1.043-1.35,2.867-1.459,4.412
	c-0.046,0.65,0.34,1.531,1.452,1.732c1.561,0.283,3.067,0.861,4.599,1.305c1.808,0.523,2.28,0.262,2.976-1.506
	c0.142-0.361,0.55-0.627,0.974-0.525c0.376,0.09,0.95,0.408,0.718,0.775c-0.777,1.232,0.261,1.465,0.889,2.051
	c0.635,0.594,0.962,1.52,2.086,1.445c0.429-0.027,0.873,0.174,1.333,0.275c-0.132,0.809-0.789,1.238-1.241,1.848
	c0.854,0.598,1.682,0.49,2.643,0.285c2.903-0.625,5.868-0.498,8.799-0.266c1.143,0.092,1.588-0.258,1.696-1.252
	c0.065-0.596-0.053-1.227,0.788-1.377c0.146-0.027,0.384-0.301,0.357-0.406c-0.406-1.611,0.75-2.896,0.883-4.383
	c0.044-0.5,0.109-0.967,0.668-0.973c0.594-0.006,0.681,0.512,0.619,0.977c-0.152,1.143,0.458,2.197,0.312,3.35
	c-0.082,0.641-0.045,1.273-0.395,1.865c-0.231,0.391-0.027,0.84,0.262,1.07c0.346,0.277,0.859,0.344,1.283,0.137
	c0.436-0.215,0.589-0.639,0.501-1.125c-0.311-1.719-0.451-3.414,0.418-5.041c0.163-0.305-0.134-0.895,0.493-0.895
	c0.357,0,0.549,0.273,0.706,0.65c0.352,0.844,0.941,0.893,1.363,0.076c0.914-1.766,2.522-2.637,4.213-3.393
	c0.787-0.352,1.115-0.793,0.661-1.582c-0.507-0.881-0.053-1.252,0.713-1.549c1.813-0.701,3.617-1.426,5.423-2.146
	c1.741-0.695,2.12-0.686,3.781,0.002c1.887,0.781,3.768,1.582,5.685,2.285c0.844,0.309,1.146,0.68,0.686,1.504
	c-0.443,0.795-0.145,1.234,0.655,1.584c1.694,0.744,3.313,1.582,4.234,3.361c0.484,0.934,1.166,0.846,1.638-0.08
	c0.145-0.283,0.222-0.586,0.58-0.539c0.419,0.055,0.237,0.469,0.351,0.711c0.79,1.682,0.784,3.41,0.388,5.182
	c-0.104,0.467,0.112,0.949,0.52,1.148c0.442,0.217,1.031,0.244,1.414-0.115c0.307-0.287,0.605-0.762,0.333-1.217
	c-1.075-1.803,0.245-3.652-0.133-5.469c-0.048-0.23,0.198-0.568,0.569-0.572c0.365-0.006,0.588,0.225,0.559,0.555
	c-0.135,1.592,1.426,2.844,0.891,4.52c-0.095,0.295,0.07,0.596,0.441,0.656c0.65,0.109,0.725,0.563,0.718,1.107
	c-0.004,0.291-0.019,0.752,0.144,0.852c1.572,0.949,0.746,1.873-0.342,3.063c3.324,0,6.287,0,9.25,0
	c0.344,0,0.555-0.215,0.709-0.477c0.705-1.182,1.807-1.82,3.123-2.27c-0.344-0.516-0.666-0.994-1.139-1.699
	c1.744-0.027,2.959-0.727,3.998-1.932c0.484-0.559,1.068-0.781,0.541-1.656c-0.322-0.531,0.268-0.826,0.682-0.914
	c0.461-0.1,0.979,0.164,0.971,0.66c-0.023,1.561,1.236,1.705,2.105,1.545c1.998-0.365,3.934-1.078,5.9-1.633
	c0.436-0.123,0.582-0.385,0.746-0.803c0.572-1.463,0.213-3.813-0.879-4.861c-0.246-0.238-0.605-0.357-0.797-0.738
	c0.949,0.08,1.725,0.236,2.252-0.648c0.563-0.945-0.443-1.428-0.582-2.162c-0.125-0.311,0.049-0.367,0.303-0.354
	c0.236,1.43,1.953,0.324,2.451,1.404c0.053,0.115,0.391-0.346,0.512-0.602c0.168-0.359,0.254-0.768,0.471-1.094
	c0.213-0.316,0.561-0.783,0.941-0.574c0.512,0.281,0.061,0.693-0.137,0.996c-0.479,0.734-0.375,1.508-0.447,2.326
	c-0.107,1.217,0.074,2.516-0.244,3.631c-0.393,1.379-0.264,2.711,1.096,3.494c1.428,0.82,2.902,1.559,4.336,2.369
	c0.717,0.404,1.043,0.219,0.963-0.568c-0.256-2.502,1.049-4.75,1.17-7.24c0.055-1.117,1.172-2.314,0.762-3.746
	c-0.039-0.137,0.127-0.447,0.268-0.506c1.549-0.631,1.42-1.602,0.715-2.84c-0.52-0.908,0.248-1.408,0.906-1.752
	c1.205-0.631,1.877-1.369,0.869-2.67c-0.344-0.445,0.049-0.752,0.152-1.098c0.588-1.932,1.658-3.77,1.029-5.918
	c-0.096-0.33,0.121-0.551,0.443-0.67c0.406-0.148,0.768-0.156,1.096,0.189c0.248,0.262,0.311,0.52,0.025,0.766
	c-0.395,0.338-0.242,0.738-0.137,1.107c0.473,1.631-0.033,3.48,1.105,4.965c0.115,0.152,0.291,0.441,0.236,0.512
	c-1.201,1.572,0.334,2.275,0.998,3.258c0.27,0.396,0.885,0.85,0.518,1.293c-0.947,1.145-0.293,2.459-0.568,3.658
	c-0.131,0.574,1.711,3.805,2.273,4.066c0.504,0.234,0.785,0.012,1.072-0.451c1.07-1.732,1.037-3.627,1.182-5.578
	c0.275-3.75-0.084-7.576,1.078-11.24c0.859-2.715,1.748-5.422,2.594-8.141c0.328-1.057,0.4-2.111-0.178-3.148
	c-0.379-0.68,0.73-2.248,1.502-2.377c1.525-0.256,3.023-0.688,4.188-1.775c0.984-0.922,1.809-2.02,2.836-2.885
	c2.031-1.709,2.162-3.777,1.291-6.031c-0.277-0.713,0.158-0.816,0.539-0.939c0.807-0.262,1.035-0.793,1.027-1.588
	c-0.008-0.67-0.096-1.406,0.709-1.82c0.404-0.207,0.316-0.695,0.336-1.09c0.178-3.543,0.332-7.09,0.547-10.631
	c0.064-1.063-0.133-1.77-1.254-2.217c-0.844-0.336-1.348-1.066-0.324-1.906c0.424-0.348,0.797-0.754,1.211-1.115
	c1.035-0.908,1.758-1.877,1.061-3.359c-0.502-1.07-0.334-1.998,0.762-2.693c1.852-1.176,2.586-3.352,4.172-4.777
	c0.291-0.262,0.346-0.535,0.156-0.928c-0.318-0.662-0.387-1.342,0.199-1.941c0.174-0.178,0.356-0.426,0.202-0.666
	c-0.752-1.172-0.148-2.117,0.467-3.07c0.322-0.166,0.402,0.115,0.537,0.293c0.711,0.775,1.068,1.631,0.514,2.641
	c-0.209,0.381-0.113,0.66,0.146,0.938c0.252,0.27,0.486,0.641,0.34,0.945c-0.785,1.635,0.664,2.309,1.293,3.396
	c0.898,1.549,2.174,2.678,3.469,3.82c0.682,0.602,0.469,1.342,0.197,1.932c-0.75,1.639-0.102,2.738,1.166,3.699
	c0.277,0.209,0.516,0.471,0.766,0.717c1.217,1.201,1.168,1.555-0.355,2.322c-0.643,0.322-0.977,0.779-0.938,1.531
	c0.203,3.793,0.383,7.588,0.572,11.381c1.402,1.186,0.223,3.803,2.506,4.512c0.289,0.09,0.285,0.379,0.109,0.615
	c-0.734,0.992-0.316,2.127-0.414,3.197c-0.074,0.807,0.182,1.416,0.787,1.98c0.984,0.922,2.055,1.822,2.775,2.934
	c1.088,1.674,2.955,2.004,4.504,2.689c0.742,0.328,1.506,0.35,1.945,1.182c0.275,0.525,0.451,0.826,0.039,1.516
	c-0.477,0.797-0.344,1.916-0.012,2.906c0.635,1.889,1.145,3.826,1.852,5.688c1.08,2.842,1.523,5.77,1.568,8.787
	c0.037,2.535,0.459,5.053,0.338,7.598c-0.059,1.227,0.9,2.059,1.301,3.113c0.191,0.502,0.828,0.438,1.07-0.066
	c0.732-1.521,2.488-2.488,1.98-4.758c-0.17-0.76-0.184-1.73-0.455-2.598c-0.318-1.021,0.553-1.539,1.086-2.133
	c0.639-0.715,1.24-1.34,0.498-2.313c-0.189-0.25-0.078-0.475,0.08-0.676c1.229-1.561,0.723-3.506,1.18-5.234
	c0.1-0.369,0.119-0.645-0.158-0.953c-0.502-0.553,0.018-0.83,0.402-0.98c0.439-0.174,0.904-0.076,1.102,0.459
	c0.049,0.133,0.043,0.301,0.012,0.441c-0.414,1.898,0.287,3.59,0.939,5.303c0.246,0.648,0.629,1.236-0.02,2.037
	c-0.451,0.559-0.156,1.377,0.639,1.863c1.893,1.156,1.945,1.277,0.934,3.125c-0.32,0.584-0.182,0.83,0.271,1.043
	c1.299,0.613,1.557,1.576,1.025,2.834c-0.172,0.404-0.264,0.82,0.236,1.01c0.834,0.314,0.904,1,0.895,1.711
	c-0.018,1.344,0.281,2.59,1.17,3.611c1.258,1.443,1.164,3.229,1.34,4.943c0.213,2.061,0.867,3.004,2.865,3.168
	c4.633,0.381,9.283,0.242,13.928,0.174c0.842-0.012,1.293-0.678,1.766-1.262c3.012-3.723,6.793-6.26,11.477-7.365
	c0.516-0.121,0.742-0.432,1.016-0.779c1.766-2.238,3.213-2.188,5.361-0.271c1.268,1.129,2.523,2.68,4.634,2.213
	c0.096-0.021,0.203-0.018,0.299,0.004c1.264,0.266,1.422,0.129,1.059-1.236c-0.174-0.66-0.336-1.201-0.039-1.91
	c0.311-0.744-0.225-1.256-0.896-1.662c-1.398-0.846-1.412-0.965-0.039-1.637c0.777-0.383,0.857-0.914,0.936-1.656
	c0.145-1.373,0.6-2.744-0.469-3.982c2.402-0.494,2.617-0.785,2.57-3.262c-0.035-1.9-0.111-3.801-0.055-5.697
	c0.039-1.301-0.717-2.561-0.117-3.9c0.139-0.313-0.232-0.627-0.646-0.854c-0.877-0.48-0.979-1.074-0.105-1.826
	c1.447-1.246,1.574-2.887,0.398-4.41c-0.277-0.359-0.432-0.5,0.025-0.766c0.303-0.174,0.357-0.469,0.211-0.777
	c-0.482-1.023,0.109-1.354,0.959-1.635c0.523-0.172,1.152-0.309,1.111-1.168c-0.154-3.227,1.342-5.563,3.951-7.357
	c1.785-1.23,2.686-4.293,1.854-6.314c-0.279-0.68-0.252-1.217-0.08-1.84c0.145-0.238,0.262-0.527,0.635-0.338
	c0.424-0.178,0.227-0.91,0.949-0.938c0.225,0.943,0.352,1.971,1.117,2.719c0.336,0.326,0.008,0.662-0.07,0.975
	c-0.793,3.211-0.463,4.4,2.334,6.078c2.629,1.576,3.16,4.098,3.494,6.74c0.102,0.818,0.305,1.242,1.08,1.516
	c1.514,0.537,1.781,1.322,1.033,2.717c-0.641,1.191,0.145,3.197,1.801,4.348c-2.439,1.1-1.441,3.17-1.445,4.951
	c-0.006,2.248,0.07,4.496,0.102,6.742c0.02,1.461,0.141,2.824,2.084,2.924c0.246,0.014,0.494,0.287,0.303,0.539
	c-1.1,1.453-0.248,3.014-0.25,4.516c-0.002,1.012,1.209,0.861,1.744,1.424c0.018,0.443-0.357,0.539-0.658,0.682
	c-0.898,0.426-1.166,1.135-1.059,2.09c0.102,0.893,0.107,1.797,0.146,2.695c0.1,2.176,0.096,2.199,2.307,2.33
	c1.096,0.064,2.215,0.148,3.295,0.014c2.162-0.27,3.904,0.426,5.354,1.977c2.223,2.375,4.877,3.23,8.164,2.957
	c3.418-0.283,6.877-0.063,10.34-0.063c-0.121-2.031-0.939-3.883-0.322-5.859c0.682-2.176,2.672-3.73,5.01-3.729
	c2.357,0.004,4.541,1.645,4.971,3.955c0.861,4.639,1.631,9.297,2.408,13.953c0.838,5.006,1.639,10.016,2.467,15.023
	c0.047,0.285,0.195,0.553,0.418,1.156c0.977-5.088,1.885-9.842,2.801-14.596c0.988-5.123,1.928-10.256,2.994-15.363
	c0.736-3.531,4.396-5.137,7.529-3.412c0.818,0.449,1.416,1.461,2.611,0.67c1.297-0.859,2.268-1.943,2.193-3.518
	c-0.102-2.141,0.123-4.262,0.133-6.389c0.02-4.498-0.072-8.996-0.152-13.494c-0.016-0.863,0.248-1.777-0.496-2.561
	c-0.213-0.225-0.123-0.781,0.164-1.221c0.66-1.012,0.322-2.119-0.746-2.725c-0.619-0.35-0.873-0.982-1.096-1.557
	c-0.273-0.703,0.443-0.459,0.744-0.514c0.758-0.137,1.713,0.359,1.426-1.318c-0.211-1.227-0.625-2.592-0.506-3.705
	c0.176-1.623,0.141-3.391,0.973-4.951c0.475,0.58,0.822,1.143,0.586,2.004c-0.238,0.863,0.463,1.475,0.938,2.084
	c0.229,0.293,0.734,0.268,0.789-0.213c0.129-1.146,0.967-2.201,0.434-3.434c-0.316-0.732-0.176-1.516,0.471-1.869
	c0.836-0.459,0.926-1.193,1.188-1.932c0.385-1.088,0.305-1.777-1.09-1.678c-0.303,0.021-0.609-0.008-0.693-0.398
	c-0.086-0.406,0.064-0.732,0.455-0.818c1.518-0.334,1.471-1.463,1.475-2.656c0.01-3.197,0.076-6.396,0.133-9.596
	c0.018-1.021-0.039-2.004-0.889-2.746c-0.135-0.119-0.334-0.389-0.291-0.461c1.174-1.938-0.479-2.822-1.654-4.055
	c3.111-1.068,2.379-3.383,1.932-5.559c-0.09-0.439,0.133-0.523,0.334-0.684c0.428-0.344,0.473-1.045,0.314-1.219
	c-1.299-1.434,0.285-2.975-0.244-4.43c-0.174-0.479-0.121-1.096,0.441-1.477c0.328-0.221,0.602-0.584,1.016-0.146
	c0.266,0.279,0.707,0.508,0.348,0.982c-0.584,0.775-0.098,1.012,0.559,1.229c0.568,0.188,1.115,0.439,1.678,0.648
	c0.621,0.23,1.357,0.787,1.746-0.223c0.311-0.809,0.98-1.732-0.166-2.482c-0.115-0.076-0.223-0.168-0.336-0.252
	c1.115-1.238-0.467-1.385-0.836-2.004c-1.314-2.201-0.945-5.563,1.012-7.272c1.705-1.49,2.551-3.241,2.445-5.506
	c-0.096-2.073,0.455-4.202-0.59-6.185c-0.23-0.438,0.059-0.78,0.283-1.09c0.592-0.815,0.854-1.737,0.631-2.687
	c-0.242-1.029-0.076-2.013,0.027-3.018c0.299,0,0.6,0,0.898,0c0.641,0.671,0.852,1.438,0.574,2.342
	c-0.295,0.96-0.131,1.884,0.328,2.755c0.447,0.843,0.518,1.688,0.213,2.602c-0.857,2.573-0.293,5.152,0.096,7.707
	c0.15,0.989,0.824,1.786,1.598,2.474c2.453,2.178,2.875,5.836,1.01,8.549c-0.533,0.777-0.689,1.715-1.109,2.551
	c-0.43,0.857,0.471,1.676,1.424,1.35c0.93-0.32,2.139-0.404,2.037-1.93c-0.035-0.525,0.436-0.93,0.99-0.943
	c0.721-0.018,1.455,0.416,1.436,1.061c-0.053,1.699,0.92,3.371,0.131,5.076c-0.084,0.182-0.189,0.416-0.105,0.578
	c0.744,1.441,0.086,2.936,0.17,4.398c0.047,0.822,0.295,1.451,1.02,1.865c0.975,0.557,1.082,1.266,0.291,2.047
	c-0.773,0.762-1.107,1.637-0.91,2.711c0.045,0.248,0.033,0.516-0.086,0.736c-1.691,3.166-0.711,6.551-0.771,9.844
	c-0.014,0.781,0.201,1.584,0.164,2.383c-0.045,0.998,0.105,1.805,1.084,2.424c0.904,0.574,0.768,1.348-0.146,1.826
	c-1.09,0.57-1.354,1.318-0.465,2.291c1.047,1.145,1.436,2.305,1.139,3.811c-0.133,0.684,0.191,1.359,0.682,2.008
	c0.584-0.303,0.646-0.84,0.686-1.373c0.027-0.396-0.037-0.803,0.102-1.189c0.152-0.428,0.326-0.945,0.801-0.996
	c0.564-0.059,0.643,0.539,0.785,0.939c0.268,0.756,0.414,1.545,0.447,2.348c0.047,1.08,0.549,1.74,1.682,1.617
	c1.35-0.148,1.633,0.588,1.617,1.697c-0.01,0.754,0.025,1.555,0.396,2.193c0.621,1.066,0.443,1.957-0.203,2.908
	c-0.756,1.111-0.887,2.246-0.656,3.664c0.434,2.654,0.113,5.383,0.154,8.078c0.004,0.297-0.063,0.602,0.139,0.986
	c0.752-0.002,1.352-0.488,1.891-0.924c1.508-1.221,3.115-1.451,4.906-0.775c1.057,0.398,2.309,0.285,3.164,1.211
	c0,19.299,0,38.6,0,57.9c-0.564,2.107-1.473,2.822-3.914,2.844c-5.648,0.053-11.297,0.033-16.945,0.006
	c-1.525-0.008-2.916,0.256-4.338,0.895c-2.133,0.957-4.393,0.863-6.514-0.178c-0.928-0.455-1.84-0.711-2.865-0.709
	c-5.4,0.012-10.799,0.004-16.197,0.006c-0.857,0-1.682,0.107-2.49,0.434c-3.584,1.451-7.182,1.496-10.768,0.01
	c-0.756-0.313-1.529-0.441-2.338-0.441c-4.6-0.004-9.199,0.002-13.797-0.004c-0.92-0.002-1.762,0.201-2.596,0.605
	c-2.486,1.205-4.994,1.236-7.465-0.057c-0.686-0.359-1.389-0.541-2.152-0.543c-4.799-0.006-9.6-0.014-14.398,0.006
	c-0.551,0.002-1.092,0.088-1.627,0.23c-6.205,1.654-12.41,1.705-18.609-0.029c-0.734-0.205-1.482-0.211-2.231-0.211
	c-15.346-0.002-30.693-0.002-46.041,0c-0.65,0-1.318-0.059-1.941,0.123c-3.82,1.121-7.738,0.707-11.625,0.77
	c-0.5,0.008-1.004-0.01-1.494-0.117c-6.879-1.506-13.85-0.49-20.772-0.754c-3.393,1.139-6.748,0.35-10.184,0.125
	c-6.924-0.451-13.891-0.15-20.838-0.129c-2.949,1.188-5.814,0.604-8.867,0.137c-3.912-0.596-7.979-0.17-11.977-0.135
	c-0.768,0.008-1.471,0.271-2.162,0.568c-1.502,0.648-3.016,0.691-4.512,0.025c-1.127-0.504-2.295-0.635-3.51-0.621
	c-2.249,0.025-4.498,0.014-6.748,0.006c-1.946-0.008-3.867-0.057-5.734,0.77c-1.334,0.59-2.769,0.303-4.087-0.27
	c-1.161-0.504-2.301-0.477-3.516-0.23c-4.956,1.01-9.925,0.926-14.886,0.027c-0.939-0.172-1.871-0.299-2.825-0.297
	c-7.349,0.004-14.697,0.006-22.046-0.004c-1.114-0.002-2.186,0.111-3.216,0.576c-1.542,0.697-3.107,0.703-4.65,0.002
	c-1.029-0.469-2.102-0.586-3.216-0.578c-2.5,0.018-5,0.02-7.499,0c-1.703-0.012-3.367,0.008-4.989,0.729
	c-1.331,0.59-2.769,0.42-4.092-0.162c-1.255-0.553-2.482-0.541-3.803-0.273c-4.905,0.992-9.828,0.904-14.737,0.012
	c-0.99-0.178-1.971-0.303-2.975-0.303c-6.749,0.006-13.498,0.008-20.247,0c-1.059-0.002-2.078,0.088-3.067,0.539
	c-3.329,1.521-8.133-0.297-8.074-5.402c0.062-5.348-0.021-10.697,0.035-16.047c0.015-1.43-0.348-2.264-1.821-2.785
	c-2.086-0.738-3.381-2.254-3.192-4.664c0.232-3.256,1.328-4.629,4.422-5.504c0.612-0.174,0.978-0.369,1.024-1.164
	c0.482-8.314,7.507-11.592,13.864-10.881c0.697,0.076,0.928-0.047,0.988-0.631c0.405-3.928,2.593-7.127,4.624-10.262
	c1.71-2.639,4.24-4.711,7.271-5.951c1.472-0.602,3.193-0.625,4.298-2.061c0.905-1.176,1.889-2.279,1.459-3.924
	c-0.252-0.965-0.366-1.854,0.698-2.459c0.362-0.207,0.621-0.678,0.394-1.033c-0.679-1.066-1.012-2.215-0.822-3.438
	c0.283-1.822-1.4-2.293-2.173-3.385C246.584,208.776,246.588,208.657,246.738,208.543z"/>
<text transform="matrix(1 0 0 1 208.8188 332)" fill="#28ABE3" font-family="'MagdaClean-Regular'" font-size="59.89" letter-spacing="-2">ESN</text>
<text transform="matrix(1 0 0 1 338.2896 331.916)"><tspan x="0" y="0" fill="#2F348B" font-family="'MagdaClean-Regular'" font-size="59.89" letter-spacing="-1">HTW</tspan><tspan x="92.768" y="0" fill="#2F348B" font-family="'MagdaClean-Regular'" font-size="59.89" letter-spacing="-11"> </tspan><tspan x="100.734" y="0" fill="#2F348B" font-family="'MagdaClean-Regular'" font-size="59.89" letter-spacing="-4">Dresden</tspan></text>
<g>
	<path fill-rule="evenodd" clip-rule="evenodd" fill="#30348B" d="M355.85,271.668c0-3.896-0.019-7.794,0.005-11.69
		c0.022-3.849,1.66-5.85,5.356-6.617c0.291-0.061,0.617-0.165,0.885-0.094c4.715,1.236,9.475-0.125,14.209,0.26
		c4.465,0.363,8.252,1.867,10.801,5.744c1.535,2.337,2.005,5.004,2.044,7.716c0.078,5.444,0.048,10.892,0.016,16.337
		c-0.021,3.377-1.647,5.762-4.297,6.463c-4.523,1.195-8.094-1.592-8.136-6.432c-0.045-5.296-0.054-10.593,0.021-15.888
		c0.019-1.305-0.302-1.756-1.646-1.637c-1.487,0.131-2.995,0.029-4.494,0.029c-2.395,0-2.395,0-2.395,2.472
		c0,5.046,0.017,10.093-0.007,15.139c-0.015,3.235-1.671,5.643-4.267,6.315c-4.49,1.164-8.016-1.473-8.084-6.125
		C355.803,279.664,355.85,275.666,355.85,271.668z"/>
	<path fill-rule="evenodd" clip-rule="evenodd" fill="#30348B" d="M274.531,271.725c0,1.569,0.046,2.771-0.011,3.968
		c-0.083,1.709,0.097,3.147,1.42,4.576c1.939,2.094,1.56,5.622-0.419,7.94c-1.63,1.91-4.842,2.434-7.418,1.104
		c-0.768-0.396-1.392-0.42-2.229-0.232c-5.428,1.219-10.916,1.33-16.31-0.006c-6.144-1.523-9.571-7.728-8.14-14.182
		c0.427-1.923,0.984-3.78,2.398-5.235c0.435-0.448,0.421-0.679-0.043-1.143c-1.572-1.571-1.96-3.491-1.474-5.641
		c1.067-4.723,4.016-7.604,8.662-8.7c4.429-1.043,8.959-1.029,13.385-0.23c5.888,1.064,9.353,5.156,10.027,11.112
		C274.645,267.4,274.464,269.749,274.531,271.725z"/>
	<path fill-rule="evenodd" clip-rule="evenodd" fill="#30348B" d="M345.631,271.629c0,1.557,0.039,2.758-0.01,3.955
		c-0.07,1.749,0.083,3.249,1.443,4.718c1.907,2.06,1.544,5.456-0.381,7.819c-1.63,1.998-4.871,2.549-7.516,1.17
		c-0.778-0.408-1.406-0.379-2.232-0.195c-5.381,1.195-10.821,1.293-16.169,0.014c-6.159-1.473-9.639-7.643-8.264-14.111
		c0.419-1.975,1.008-3.863,2.431-5.389c0.218-0.234,0.588-0.383,0.144-0.923c-2.422-2.946-2.503-5.775-0.427-9.211
		c1.602-2.651,3.886-4.4,6.878-5.166c4.671-1.194,9.44-1.195,14.109-0.322c5.744,1.074,9.139,5.134,9.831,10.959
		C345.747,267.291,345.569,269.64,345.631,271.629z"/>
	<path fill-rule="evenodd" clip-rule="evenodd" fill="#30348B" d="M230.391,253.695c3.356,0.902,5.233,3.408,4.969,6.4
		c-0.298,3.369-2.626,5.628-6.16,5.715c-1.241,0.031-1.442,0.43-1.432,1.533c0.051,5.349,0.048,10.699,0.014,16.049
		c-0.024,3.797-1.737,5.875-5.384,6.641c-2.121,0.447-5.972-0.98-6.633-4.102c-0.24-1.131-0.43-2.247-0.426-3.406
		c0.016-5.149-0.007-10.3,0.021-15.449c0.004-0.88-0.062-1.403-1.148-1.655c-2.442-0.565-4.149-3.123-4.107-5.788
		c0.042-2.672,1.795-5.124,4.248-5.701c0.859-0.202,1.099-0.556,1.195-1.37c1.037-8.781,9.122-11.771,15.031-10.813
		c3.261,0.529,4.893,3.068,4.912,5.897C235.507,250.11,234.37,252.988,230.391,253.695z"/>
	<path fill-rule="evenodd" clip-rule="evenodd" fill="#30348B" d="M400.446,271.894c0-0.949-0.01-1.898,0.002-2.848
		c0.023-1.766,0.363-3.361-2.166-4.166c-2.309-0.734-3.154-3.184-2.965-5.557c0.207-2.604,1.477-4.691,4.207-5.389
		c0.886-0.227,0.918-0.659,0.934-1.358c0.047-2.038-0.203-4.085,0.374-6.106c0.716-2.504,3.057-4.303,5.798-4.318
		c2.702-0.016,5.145,1.801,5.87,4.268c0.564,1.916,0.396,3.865,0.365,5.802c-0.015,0.997,0.18,1.352,1.282,1.362
		c3.272,0.034,5.341,1.65,6.049,4.512c1.023,4.133-1.573,7.576-5.954,7.723c-1.143,0.038-1.405,0.339-1.377,1.431
		c0.077,2.996,0.071,5.996,0.003,8.992c-0.024,1.05,0.277,1.326,1.329,1.339c3.467,0.043,5.538,1.726,6.23,4.879
		c0.816,3.713-1.655,7.116-5.658,7.336c-5.153,0.287-9.563-1.35-12.438-5.943c-1.447-2.313-1.792-4.946-1.877-7.612
		C400.409,274.792,400.446,273.342,400.446,271.894z"/>
	<path fill-rule="evenodd" clip-rule="evenodd" fill="#30348B" d="M460.672,271.764c0.063,3.088,0.311,6.182-0.553,9.231
		c-1.098,3.864-3.572,6.415-7.209,7.85c-1.807,0.713-3.734,1.098-5.719,1.006c-2.988-0.139-5.986,0.232-8.975-0.254
		c-6.695-1.088-10.492-5.963-10.746-12.79c-0.125-3.395-0.098-6.8-0.006-10.197c0.209-7.903,5.523-13.091,13.408-13.038
		c3.383,0.022,6.791-0.399,10.152,0.434c5.689,1.411,9.148,5.321,9.617,11.166C460.818,267.356,460.672,269.566,460.672,271.764z"/>
	<path fill-rule="evenodd" clip-rule="evenodd" fill="#30348B" d="M284.75,271.803c0-3.897-0.028-7.795,0.008-11.692
		c0.035-3.748,1.703-5.732,5.335-6.465c0.243-0.049,0.511-0.136,0.738-0.082c3.958,0.927,7.901-0.387,11.868-0.054
		c2.977,0.251,5.398,1.726,6.119,4.192c1.265,4.331-1.357,7.975-5.896,8.145c-1.547,0.058-3.1,0.069-4.645-0.009
		c-0.942-0.047-1.173,0.265-1.167,1.178c0.041,5.445,0.035,10.893,0.014,16.339c-0.013,3.348-1.66,5.778-4.299,6.446
		c-4.524,1.145-7.995-1.471-8.063-6.156C284.704,279.699,284.75,275.75,284.75,271.803z"/>
	<path fill-rule="evenodd" clip-rule="evenodd" fill="#FFFFFF" d="M359.712,271.683c-0.001-3.847,0.005-7.693-0.004-11.541
		c-0.003-1.137,0.042-2.241,1.294-2.77c1.152-0.484,2.165-0.268,2.927,0.743c0.288,0.382,0.581,0.335,0.905,0.175
		c2.014-0.99,4.172-0.854,6.317-0.843c1.648,0.009,3.298-0.006,4.946,0.003c5.338,0.028,8.973,3.319,9.129,8.638
		c0.172,5.891,0.074,11.789,0.046,17.684c-0.008,1.646-0.918,2.507-2.374,2.474c-1.428-0.031-2.279-0.926-2.288-2.576
		c-0.026-5.445-0.006-10.891-0.013-16.336c-0.006-4.072-1.311-5.366-5.387-5.368c-2.049,0-4.098-0.018-6.145,0.004
		c-3.135,0.032-4.722,1.589-4.735,4.704c-0.024,5.645,0,11.29-0.013,16.936c-0.004,1.699-0.767,2.583-2.189,2.636
		c-1.523,0.055-2.395-0.826-2.408-2.573C359.694,279.676,359.713,275.68,359.712,271.683z"/>
	<path fill-rule="evenodd" clip-rule="evenodd" fill="#FFFFFF" d="M270.698,273.114c0,1.815,0,3.914,0,6.013
		c0,1.179,0.406,2.076,1.469,2.747c1.334,0.842,1.56,2.107,0.772,3.345c-0.728,1.146-2.094,1.58-3.219,0.51
		c-1.672-1.589-3.109-1.381-4.866-0.348c-0.896,0.525-2,0.594-3.062,0.566c-3.39-0.084-6.813,0.4-10.165-0.273
		c-5.783-1.163-8.543-7.333-5.615-12.454c1.484-2.597,4.05-3.418,6.811-3.747c3.469-0.414,6.946-0.767,10.42-1.142
		c1.27-0.137,2.469-0.512,2.654-1.951c0.186-1.45-0.28-2.766-1.566-3.662c-0.548-0.381-1.177-0.629-1.812-0.656
		c-2.941-0.127-5.889-0.258-8.825,0.066c-1.633,0.182-2.719,1.043-3.247,2.673c-0.499,1.54-1.619,2.046-3.035,1.554
		c-1.254-0.437-1.701-1.419-1.317-2.896c0.887-3.412,3.622-5.685,7.586-5.932c3.036-0.189,6.101-0.182,9.139-0.012
		c3.952,0.223,7.056,3.301,7.638,7.232C270.856,267.436,270.549,270.137,270.698,273.114z"/>
	<path fill-rule="evenodd" clip-rule="evenodd" fill="#FFFFFF" d="M341.798,272.805c0,2.028,0.001,4.176,0,6.325
		c-0.001,1.179,0.409,2.074,1.472,2.745c1.332,0.841,1.557,2.11,0.768,3.347c-0.73,1.145-2.059,1.553-3.228,0.508
		c-1.602-1.429-2.964-1.592-4.723-0.4c-0.804,0.545-1.888,0.631-2.898,0.609c-3.49-0.07-7.014,0.42-10.464-0.268
		c-5.783-1.155-8.54-7.335-5.609-12.456c1.485-2.595,4.051-3.415,6.812-3.744c3.47-0.413,6.946-0.768,10.42-1.141
		c1.211-0.13,2.275-0.486,2.649-1.806c0.315-1.115-0.448-2.994-1.444-3.726c-0.58-0.428-1.25-0.709-1.937-0.738
		c-2.941-0.129-5.889-0.259-8.826,0.067c-1.633,0.182-2.716,1.046-3.245,2.676c-0.499,1.538-1.62,2.043-3.037,1.548
		c-1.253-0.438-1.697-1.419-1.313-2.898c0.912-3.502,3.84-5.792,7.887-5.961c2.843-0.118,5.698-0.109,8.542-0.01
		c4.063,0.145,7.334,3.223,7.934,7.268C341.952,267.39,341.643,270.042,341.798,272.805z"/>
	<path fill-rule="evenodd" clip-rule="evenodd" fill="#FFFFFF" d="M219.216,273.307c0-3.399-0.033-6.799,0.021-10.196
		c0.015-0.935-0.267-1.262-1.186-1.158c-0.592,0.067-1.199,0.029-1.798-0.001c-1.456-0.073-2.267-0.882-2.269-2.228
		c-0.003-1.34,0.843-2.172,2.239-2.281c0.979-0.075,2.276,0.475,2.848-0.268c0.466-0.604,0.121-1.826,0.151-2.775
		c0.184-5.908,4.576-9.651,10.482-8.939c1.329,0.16,1.965,1.034,1.949,2.246c-0.017,1.201-0.649,2.1-1.98,2.227
		c-0.695,0.066-1.405-0.002-2.094,0.096c-2.325,0.329-3.549,1.693-3.664,4.008c-0.169,3.412-0.169,3.412,3.21,3.412
		c0.75,0.001,1.501-0.027,2.249,0.012c1.332,0.07,2.122,0.91,2.13,2.207c0.008,1.283-0.784,2.202-2.082,2.267
		c-1.347,0.066-2.704,0.102-4.046,0.009c-1.145-0.078-1.515,0.231-1.503,1.451c0.065,6.697,0.039,13.396,0.026,20.094
		c-0.003,1.881-0.83,2.801-2.391,2.758c-1.472-0.039-2.27-0.951-2.284-2.743C219.198,280.105,219.216,276.706,219.216,273.307z"/>
	<path fill-rule="evenodd" clip-rule="evenodd" fill="#FFFFFF" d="M409.006,270.202c0.002,2.249-0.023,4.498,0.008,6.746
		c0.04,2.843,1.479,4.318,4.316,4.482c0.449,0.026,0.901-0.006,1.349,0.029c1.254,0.098,2.193,1.064,2.089,2.271
		c-0.104,1.204-0.687,2.067-2.018,2.213c-5.951,0.654-10.304-3.134-10.415-9.189c-0.082-4.446-0.063-8.896,0.01-13.343
		c0.02-1.191-0.32-1.619-1.492-1.459c-0.538,0.074-1.1,0.033-1.646-0.012c-1.315-0.109-2.093-0.983-2.064-2.276
		c0.028-1.272,0.854-2.103,2.152-2.217c0.979-0.085,2.349,0.474,2.84-0.254c0.492-0.729,0.171-2.019,0.179-3.063
		c0.012-1.748-0.012-3.498,0.007-5.247c0.021-1.92,0.784-2.831,2.325-2.832c1.551-0.001,2.345,0.927,2.355,2.803
		c0.014,2.399,0.058,4.8-0.021,7.196c-0.035,1.067,0.17,1.531,1.362,1.426c1.339-0.117,2.697-0.055,4.046-0.016
		c1.382,0.039,2.161,0.818,2.211,2.119c0.051,1.348-0.765,2.297-2.139,2.359c-1.347,0.061-2.707,0.12-4.045-0.001
		c-1.267-0.114-1.47,0.417-1.434,1.517C409.056,265.702,409.004,267.953,409.006,270.202z"/>
	<path fill-rule="evenodd" clip-rule="evenodd" fill="#FFFFFF" d="M456.959,271.543c-0.092,2.315,0.102,4.563-0.178,6.807
		c-0.533,4.259-3.846,7.427-8.129,7.568c-2.994,0.098-5.996,0.094-8.99,0c-4.154-0.129-7.635-3.149-8.102-7.258
		c-0.518-4.566-0.502-9.185-0.018-13.75c0.465-4.36,4.01-7.361,8.396-7.445c2.797-0.053,5.596-0.052,8.393,0
		c4.527,0.084,7.918,3.221,8.463,7.713C457.057,267.321,456.863,269.469,456.959,271.543z"/>
	<path fill-rule="evenodd" clip-rule="evenodd" fill="#FFFFFF" d="M288.613,271.716c0-3.846,0-7.692-0.001-11.538
		c0-1.036,0.102-2.032,1.217-2.514c1.019-0.44,1.948-0.271,2.749,0.511c0.212,0.207,0.384,0.445,0.745,0.225
		c2.149-1.314,4.547-0.881,6.871-0.945c0.998-0.027,2-0.041,2.996,0.01c1.267,0.064,2.095,0.987,2.105,2.256
		c0.011,1.289-0.767,2.168-2.108,2.216c-1.746,0.062-3.496,0.011-5.244,0.033c-3.151,0.04-4.698,1.576-4.707,4.712
		c-0.016,5.645,0.004,11.289-0.011,16.933c-0.004,1.669-0.688,2.513-2.032,2.628c-1.625,0.141-2.554-0.723-2.569-2.538
		C288.59,279.709,288.613,275.712,288.613,271.716z"/>
	<path fill-rule="evenodd" clip-rule="evenodd" fill="#30348B" d="M265.931,272.595c0,1.742,0.106,3.491-0.027,5.221
		c-0.16,2.065-1.555,3.44-3.779,3.549c-2.938,0.144-5.896,0.167-8.832-0.008c-2.854-0.169-4.106-2.056-3.545-4.877
		c0.286-1.437,1.274-2.098,2.625-2.265c3.316-0.411,6.637-0.779,9.956-1.17C263.504,272.907,264.679,272.752,265.931,272.595z"/>
	<path fill-rule="evenodd" clip-rule="evenodd" fill="#30348B" d="M337.03,272.595c0,1.749,0.105,3.497-0.027,5.228
		c-0.154,2.017-1.487,3.37-3.637,3.526c-3.084,0.226-6.196,0.281-9.275-0.031c-2.469-0.25-3.427-1.595-3.301-4.099
		c0.09-1.797,0.75-2.709,2.543-2.966c3.356-0.48,6.733-0.811,10.101-1.208C334.61,272.906,335.783,272.751,337.03,272.595z"/>
	<path fill-rule="evenodd" clip-rule="evenodd" fill="#30348B" d="M436.006,271.627c0-1.749-0.023-3.499,0.004-5.248
		c0.045-2.706,1.555-4.313,4.258-4.393c2.596-0.077,5.199-0.085,7.795,0.005c2.643,0.09,4.139,1.65,4.178,4.308
		c0.051,3.599,0.051,7.198,0,10.796c-0.035,2.609-1.443,4.17-4.023,4.294c-2.693,0.13-5.4,0.125-8.094,0.008
		c-2.645-0.114-4.068-1.717-4.113-4.372C435.982,275.226,436.006,273.427,436.006,271.627z"/>
</g>
<g>
	<path fill-rule="evenodd" clip-rule="evenodd" fill="#30348B" d="M569.743,273.16c1.684-8.692,3.318-17.162,4.965-25.629
		c0.629-3.242,3.828-4.789,6.371-4.449c4.381,0.584,6.037,3.752,5.549,6.67c-1.791,10.722-3.549,21.457-6.184,32.016
		c-1.355,5.434-5.139,8.348-10.748,8.336c-5.504-0.014-9.582-3.176-10.842-8.508c-1.598-6.756-2.412-13.652-3.641-20.475
		c-0.611-3.387-1.131-6.79-1.727-10.18c-0.729-4.16,0.982-6.84,5.004-7.764c2.996-0.688,6.307,1.259,6.871,4.276
		c1.1,5.882,2.043,11.794,3.045,17.693C568.851,267.754,569.278,270.363,569.743,273.16z"/>
	<path fill-rule="evenodd" clip-rule="evenodd" fill="#30348B" d="M511.134,253.502c2.086,0.064,4.371-0.119,6.646,0.467
		c5.479,1.412,8.875,5.126,9.508,10.79c0.295,2.628,0.662,5.374-0.357,7.86c-0.689,1.682-0.41,2.982-0.033,4.623
		c0.918,3.982-1.102,7.029-3.949,9.555c-2.432,2.154-5.453,2.932-8.602,2.969c-3.137,0.039-6.287,0.281-9.422-0.213
		c-6.781-1.07-10.568-6.041-10.789-12.895c-0.109-3.344-0.086-6.697-0.006-10.043c0.189-7.965,5.51-13.099,13.502-13.113
		C508.731,253.501,509.831,253.502,511.134,253.502z"/>
	<path fill-rule="evenodd" clip-rule="evenodd" fill="#30348B" d="M541.944,290.102c-4.455-0.305-7.219-3.125-7.352-7.516
		c-0.125-4.084,3.441-7.514,7.422-7.482c4.049,0.033,7.434,3.475,7.402,7.529C549.386,286.711,545.995,290.1,541.944,290.102z"/>
	<path fill-rule="evenodd" clip-rule="evenodd" fill="#30348B" d="M600.202,275.104c4.045,0.021,7.43,3.451,7.416,7.518
		c-0.016,4.066-3.412,7.588-7.461,7.449c-4.443-0.154-7.221-3.064-7.367-7.473C592.657,278.52,596.216,275.084,600.202,275.104z"/>
	<path fill-rule="evenodd" clip-rule="evenodd" fill="#FFFFFF" d="M569.581,286.254c-3.715-0.072-6.24-2.006-7.098-5.867
		c-0.854-3.842-1.459-7.742-2.125-11.625c-1.004-5.851-1.967-11.708-2.941-17.564c-0.098-0.59-0.197-1.186-0.221-1.781
		c-0.057-1.487,0.648-2.347,1.994-2.5c1.418-0.162,2.363,0.531,2.619,2.029c1.006,5.901,1.979,11.809,2.979,17.711
		c0.691,4.082,1.373,8.166,2.135,12.234c0.227,1.219,0.586,2.469,2.133,2.752c1.895,0.346,3.1-0.551,3.52-2.73
		c0.832-4.311,1.627-8.627,2.447-12.939c1.08-5.684,2.156-11.367,3.268-17.045c0.297-1.524,1.125-2.143,2.473-2.018
		c1.631,0.152,2.316,1.321,1.961,3.34c-0.586,3.341-1.166,6.683-1.76,10.021c-1.164,6.531-2.398,13.049-3.902,19.51
		c-0.701,3.014-1.973,5.596-5.4,6.27C570.981,286.186,570.274,286.189,569.581,286.254z"/>
	<path fill-rule="evenodd" clip-rule="evenodd" fill="#FFFFFF" d="M511.868,273.918c-2.697,0.002-5.395,0.029-8.092-0.016
		c-0.811-0.012-1.102,0.174-1.127,1.061c-0.152,5.162,1.043,6.441,6.174,6.439c1.799,0,3.598,0.014,5.395-0.02
		c2.209-0.043,3.793-1.002,4.607-3.148c0.564-1.484,1.709-1.992,3.082-1.496c1.283,0.465,1.711,1.512,1.252,3.059
		c-1.043,3.508-4.209,5.959-8.051,6.074c-2.943,0.086-5.896,0.102-8.84-0.004c-4.152-0.148-7.59-3.18-8.045-7.316
		c-0.502-4.566-0.502-9.184-0.004-13.75c0.467-4.273,3.996-7.282,8.301-7.379c2.848-0.064,5.695-0.061,8.543-0.002
		c4.508,0.094,7.885,3.267,8.406,7.772c0.191,1.646,0.189,3.295,0.115,4.938c-0.109,2.426-1.51,3.754-3.924,3.779
		C517.063,273.939,514.466,273.918,511.868,273.918z"/>
	<path fill-rule="evenodd" clip-rule="evenodd" fill="#FEFEFF" d="M541.97,286.203c-1.955,0.012-3.484-1.49-3.531-3.473
		c-0.047-1.996,1.535-3.697,3.469-3.727c1.979-0.031,3.602,1.561,3.637,3.561C545.577,284.523,543.94,286.189,541.97,286.203z"/>
	<path fill-rule="evenodd" clip-rule="evenodd" fill="#FEFEFF" d="M600.087,286.203c-1.939-0.021-3.445-1.574-3.447-3.555
		c-0.002-2.002,1.602-3.648,3.551-3.645c1.967,0.004,3.574,1.652,3.553,3.645C603.722,284.615,602.067,286.225,600.087,286.203z"/>
	<path fill-rule="evenodd" clip-rule="evenodd" fill="#30348B" d="M510.712,269.402c-2.344,0-4.688-0.027-7.029,0.016
		c-0.762,0.016-1.143-0.174-1.01-0.987c0.008-0.049,0.002-0.1,0-0.149c-0.121-5.188,1.021-6.362,6.199-6.361
		c1.795,0,3.59-0.02,5.385,0.004c3.051,0.039,4.594,1.571,4.668,4.598c0.07,2.881,0.07,2.881-2.83,2.881
		C514.3,269.402,512.507,269.402,510.712,269.402z"/>
</g>
<polygon fill="#E30613" points="323.558,314.209 326.913,310.855 322.169,310.855 322.169,312.82 "/>
<polygon fill="#862A28" points="318.814,309.465 320.205,310.855 322.169,310.855 322.169,306.111 "/>
<polygon fill="#009640" points="322.169,317.563 320.205,317.563 318.814,318.953 322.169,322.307 "/>
<polygon fill="#87632C" points="323.558,314.209 322.169,315.599 322.169,317.563 326.913,317.563 "/>
<polygon fill="#312783" points="315.461,310.855 310.718,310.855 314.072,314.209 315.461,312.82 "/>
<polygon fill="#009640" points="315.461,306.111 315.461,310.855 317.426,310.855 318.814,309.465 "/>
<polygon fill="#E30613" points="310.718,317.563 315.461,317.563 315.461,315.599 314.072,314.209 "/>
<polygon fill="#0B5737" points="315.461,322.307 318.814,318.953 317.426,317.563 315.461,317.563 "/>
<g>
	<path fill="#E6007E" d="M335.094,300.302l-2.372-2.371c-0.655-0.655-1.716-0.655-2.371,0l-8.182,8.181v4.744h4.743l8.181-8.183
		C335.75,302.018,335.749,300.957,335.094,300.302z"/>
	<polygon fill="#E6007E" points="322.169,312.82 322.169,310.855 320.205,310.855 	"/>
</g>
<g>
	<polygon fill="#80BA27" points="320.205,317.563 322.169,317.563 322.169,315.599 	"/>
	<path fill="#80BA27" d="M326.913,317.563h-4.743v4.744l8.182,8.181c0.655,0.655,1.716,0.655,2.371,0l2.372-2.371
		c0.655-0.655,0.656-1.717,0-2.371L326.913,317.563z"/>
</g>
<g>
	<polygon fill="#009FE3" points="317.426,310.855 315.461,310.855 315.461,312.82 	"/>
	<path fill="#009FE3" d="M310.718,310.855h4.743v-4.744l-8.182-8.181c-0.655-0.655-1.717-0.655-2.372,0l-2.371,2.371
		c-0.656,0.655-0.656,1.716,0,2.371L310.718,310.855z"/>
</g>
<g>
	<path fill="#EE7402" d="M302.537,325.745c-0.656,0.654-0.656,1.716,0,2.371l2.371,2.371c0.655,0.655,1.717,0.655,2.372,0
		l8.182-8.181v-4.744h-4.743L302.537,325.745z"/>
	<polygon fill="#EE7402" points="315.461,315.599 315.461,317.563 317.426,317.563 	"/>
</g>
<g>
	<polygon fill="#EE7402" points="322.169,315.599 323.558,314.209 322.169,312.82 	"/>
	<path fill="#EE7402" d="M335.015,310.855h-8.102l-3.354,3.354l3.354,3.354h8.102c0.927,0,1.677-0.751,1.677-1.677v-3.354
		C336.692,311.605,335.941,310.855,335.015,310.855z"/>
</g>
<g>
	<polygon fill="#E6007E" points="315.461,312.82 314.072,314.209 315.461,315.599 	"/>
	<path fill="#E6007E" d="M310.718,317.563l3.354-3.354l-3.354-3.354h-8.102c-0.927,0-1.677,0.75-1.677,1.677v3.354
		c0,0.926,0.75,1.677,1.677,1.677H310.718z"/>
</g>
<g>
	<path fill="#80BA27" d="M322.169,298.01c0-0.927-0.751-1.678-1.677-1.678h-3.354c-0.926,0-1.678,0.751-1.678,1.678v8.102
		l3.354,3.354l3.355-3.354V298.01z"/>
	<polygon fill="#80BA27" points="320.205,310.855 318.814,309.465 317.426,310.855 	"/>
</g>
<g>
	<polygon fill="#009FE3" points="317.426,317.563 318.814,318.953 320.205,317.563 	"/>
	<path fill="#009FE3" d="M318.814,318.953l-3.354,3.354v8.103c0,0.926,0.751,1.677,1.678,1.677h3.354
		c0.926,0,1.677-0.751,1.677-1.677v-8.103L318.814,318.953z"/>
</g>
</svg>
